{
  "accessors": [
    {
      "bufferView": 1,
      "componentType": 5126,
      "count": 51069,
      "max": [
        40.843044281005859,
        60.001186370849609,
        38.109909057617188
      ],
      "min": [
        -0.0022423700429499149,
        -4.8279998736688867e-05,
        -0.00016271999629680067
      ],
      "type": "VEC3"
    },
    {
      "bufferView": 1,
      "byteOffset": 612828,
      "componentType": 5126,
      "count": 51069,
      "max": [
        0.9999992847442627,
        1,
        0.99999994039535522
      ],
      "min": [
        -0.9999968409538269,
        -1,
        -0.99999696016311646
      ],
      "type": "VEC3"
    },
    {
      "bufferView": 0,
      "componentType": 5125,
      "count": 300000,
      "max": [
        51068
      ],
      "min": [
        0
      ],
      "type": "SCALAR"
    }
  ],
  "asset": {
    "extras": {
      "author": "h3ydari96 (https://sketchfab.com/h3ydari96)",
      "license": "CC-BY-4.0 (http://creativecommons.org/licenses/by/4.0/)",
      "source": "https://sketchfab.com/3d-models/hulk-fist-keychain-491b5d0ab76b4951a535d62da8caa466",
      "title": "Hulk fist keychain"
    },
    "generator": "Sketchfab-9.55.1",
    "version": "2.0"
  },
  "bufferViews": [
    {
      "buffer": 0,
      "byteLength": 1200000,
      "byteOffset": 0,
      "name": "floatBufferViews",
      "target": 34963
    },
    {
      "buffer": 0,
      "byteLength": 1225656,
      "byteOffset": 1200000,
      "byteStride": 12,
      "name": "floatBufferViews",
      "target": 34962
    }
  ],
  "buffers": [
    {
      "byteLength": 2425656,
      "uri": "scene.bin"
    }
  ],
  "materials": [
    {
      "doubleSided": true,
      "name": "Scene_-_Root",
      "pbrMetallicRoughness": {
        "baseColorFactor": [
          0.0034537802179284744,
          0.17901507171454986,
          0.0003151983555374416,
          1
        ],
        "metallicFactor": 0,
        "roughnessFactor": 0.59999999999999998
      }
    }
  ],
  "meshes": [
    {
      "primitives": [
        {
          "attributes": {
            "NORMAL": 1,
            "POSITION": 0
          },
          "indices": 2,
          "material": 0,
          "mode": 4
        }
      ]
    }
  ],
  "nodes": [
    {
      "children": [
        1
      ],
      "name": "RootNode (gltf orientation matrix)",
      "rotation": [
        -0.70710678118654746,
        -0,
        -0,
        0.70710678118654757
      ]
    },
    {
      "children": [
        2
      ],
      "matrix": [
        1,
        0,
        0,
        0,
        0,
        -0.0036255407612770796,
        0.99999344348907471,
        0,
        0,
        -0.99999344348907471,
        -0.0036255407612770796,
        0,
        0,
        49.164070129394531,
        -10.876484870910645,
        1
      ],
      "name": "RootNode (model correction matrix)"
    },
    {
      "children": [
        3
      ],
      "name": "hulk_fist_keychain.stl.cleaner.materialmerger.gles"
    },
    {
      "mesh": 0,
      "name": ""
    }
  ],
  "scene": 0,
  "scenes": [
    {
      "name": "OSG_Scene",
      "nodes": [
        0
      ]
    }
  ]
}

