{
  "accessors": [
    {
      "bufferView": 2,
      "componentType": 5126,
      "count": 1294,
      "max": [
        1.6716334819793701,
        116.23258209228516,
        21.201250076293945
      ],
      "min": [
        -1.6716334819793701,
        -10.481130599975586,
        -3.5629446506500244
      ],
      "type": "VEC3"
    },
    {
      "bufferView": 2,
      "byteOffset": 15528,
      "componentType": 5126,
      "count": 1294,
      "max": [
        1,
        0.99988478422164917,
        0.99998593330383301
      ],
      "min": [
        -1,
        -0.99988478422164917,
        -0.99994230270385742
      ],
      "type": "VEC3"
    },
    {
      "bufferView": 3,
      "componentType": 5126,
      "count": 1294,
      "max": [
        0.9999997615814209,
        0.98282593488693237,
        1,
        1
      ],
      "min": [
        -0.99999547004699707,
        -0.98184609413146973,
        -0.99992942810058594,
        -1
      ],
      "type": "VEC4"
    },
    {
      "bufferView": 1,
      "componentType": 5126,
      "count": 1294,
      "max": [
        0.99485182762145996,
        0.99329757690429688
      ],
      "min": [
        0.0060853958129882812,
        0.0013155341148376465
      ],
      "type": "VEC2"
    },
    {
      "bufferView": 0,
      "componentType": 5125,
      "count": 4890,
      "max": [
        1293
      ],
      "min": [
        0
      ],
      "type": "SCALAR"
    }
  ],
  "asset": {
    "extras": {
      "author": "Henry VIII (https://sketchfab.com/henryviii)",
      "license": "CC-BY-4.0 (http://creativecommons.org/licenses/by/4.0/)",
      "source": "https://sketchfab.com/models/3e848f426f874afea8cd0a1d474c1462",
      "title": "Ryuko Matoi Scissor"
    },
    "generator": "Sketchfab-3.18.5",
    "version": "2.0"
  },
  "bufferViews": [
    {
      "buffer": 0,
      "byteLength": 19560,
      "byteOffset": 0,
      "name": "floatBufferViews",
      "target": 34963
    },
    {
      "buffer": 0,
      "byteLength": 10352,
      "byteOffset": 19560,
      "byteStride": 8,
      "name": "floatBufferViews",
      "target": 34962
    },
    {
      "buffer": 0,
      "byteLength": 31056,
      "byteOffset": 29912,
      "byteStride": 12,
      "name": "floatBufferViews",
      "target": 34962
    },
    {
      "buffer": 0,
      "byteLength": 20704,
      "byteOffset": 60968,
      "byteStride": 16,
      "name": "floatBufferViews",
      "target": 34962
    }
  ],
  "buffers": [
    {
      "byteLength": 81672,
      "uri": "scene.bin"
    }
  ],
  "images": [
    {
      "uri": "textures/m_deadly_haircut_baseColor.png"
    }
  ],
  "materials": [
    {
      "doubleSided": true,
      "name": "m_deadly_haircut",
      "pbrMetallicRoughness": {
        "baseColorFactor": [
          1,
          1,
          1,
          1
        ],
        "baseColorTexture": {
          "index": 0,
          "texCoord": 0
        },
        "metallicFactor": 0,
        "roughnessFactor": 0.59999999999999998
      }
    }
  ],
  "meshes": [
    {
      "name": "ratstick_m_deadly_haircut_0",
      "primitives": [
        {
          "attributes": {
            "NORMAL": 1,
            "POSITION": 0,
            "TANGENT": 2,
            "TEXCOORD_0": 3
          },
          "indices": 4,
          "material": 0,
          "mode": 4
        }
      ]
    }
  ],
  "nodes": [
    {
      "children": [
        1
      ],
      "name": "RootNode (gltf orientation matrix)",
      "rotation": [
        -0.70710678118654746,
        -0,
        -0,
        0.70710678118654757
      ]
    },
    {
      "children": [
        2
      ],
      "name": "RootNode (model correction matrix)"
    },
    {
      "children": [
        3
      ],
      "matrix": [
        1,
        0,
        0,
        0,
        0,
        0,
        1,
        0,
        0,
        -1,
        0,
        0,
        0,
        0,
        0,
        1
      ],
      "name": "ratstick.fbx"
    },
    {
      "children": [
        4
      ],
      "name": "RootNode"
    },
    {
      "children": [
        5
      ],
      "matrix": [
        1,
        0,
        0,
        0,
        0,
        2.2204460492503131e-16,
        -1,
        0,
        0,
        1,
        2.2204460492503131e-16,
        0,
        0,
        0,
        0,
        1
      ],
      "name": "ratstick"
    },
    {
      "mesh": 0,
      "name": "ratstick_m_deadly_haircut_0"
    }
  ],
  "samplers": [
    {
      "magFilter": 9729,
      "minFilter": 9987,
      "wrapS": 10497,
      "wrapT": 10497
    }
  ],
  "scene": 0,
  "scenes": [
    {
      "name": "OSG_Scene",
      "nodes": [
        0
      ]
    }
  ],
  "textures": [
    {
      "sampler": 0,
      "source": 0
    }
  ]
}

